<?xml version="1.0" encoding="utf-8"?>
<!-- Generator: Adobe Illustrator 21.1.0, SVG Export Plug-In . SVG Version: 6.00 Build 0)  -->
<svg version="1.1" id="Capa_1" xmlns="http://www.w3.org/2000/svg" xmlns:xlink="http://www.w3.org/1999/xlink" x="0px" y="0px"
	 viewBox="0 0 512 512" style="enable-background:new 0 0 512 512;" xml:space="preserve">
<style type="text/css">
	.st0{clip-path:url(#SVGID_2_);}
	.st1{clip-path:url(#SVGID_4_);fill:#FFFFFF;}
</style>
<g>
	<g>
		<defs>
			<rect id="SVGID_1_" x="-85" y="-15" width="682" height="527"/>
		</defs>
		<clipPath id="SVGID_2_">
			<use xlink:href="#SVGID_1_"  style="overflow:visible;"/>
		</clipPath>
		<g class="st0">
			<defs>
				<rect id="SVGID_3_" x="-85" y="-15" width="682" height="527"/>
			</defs>
			<clipPath id="SVGID_4_">
				<use xlink:href="#SVGID_3_"  style="overflow:visible;"/>
			</clipPath>
			<path class="st1" d="M413.8,163.4c0,4.1-3.2,7.5-7.5,7.5c-4.3,0-7.5-3.4-7.5-7.5c0-4.1,3.2-7.6,7.5-7.6
				C410.6,155.8,413.8,159.3,413.8,163.4 M400.6,163.4c0,3.1,2.4,5.7,5.6,5.7c3.2,0,5.6-2.6,5.6-5.7c0-3.2-2.5-5.9-5.6-5.9
				C403.1,157.6,400.6,160.2,400.6,163.4"/>
			<polygon class="st1" points="416.6,156.1 418.5,156.1 422.9,166.6 427.5,156.1 427.8,156.1 432.5,166.6 437,156.1 438.9,156.1 
				432.6,170.6 432.3,170.6 427.7,160.2 423.1,170.6 422.7,170.6 			"/>
			<path class="st1" d="M443.6,163.5c0.1,3.3,2.3,5.7,5.4,5.7c3,0,4.5-1.7,5.5-3.4l1.5,0.8c-1.5,2.9-3.7,4.3-6.9,4.3
				c-4.8,0-7.5-3.7-7.5-7.5c0-3.9,2.9-7.6,7.4-7.6c4.1,0,7.4,3,7.5,7.7H443.6z M454.6,161.9c-0.8-3-2.9-4.3-5.4-4.3
				c-2.6,0-4.5,1.4-5.3,4.3H454.6z"/>
			<path class="st1" d="M463.3,158.7c1.5-2,3.3-3,5.4-3c3.1,0,5.3,2.2,5.3,6.7v8.1h-1.8v-7.8c0-3.4-1.1-5.3-3.9-5.3
				c-1.5,0-2.8,0.7-3.8,2c-1.1,1.4-1.2,2.8-1.2,5.1v6.1h-1.8v-14.4h1.8V158.7z"/>
			<path class="st1" d="M479.1,167.5c0.9,1,1.9,1.6,3,1.6c1.4,0,2.7-1,2.7-2.4c0-0.8-0.5-1.6-1.2-2c-3.3-1.8-5-2.6-5-5.2
				c0-2.3,1.8-3.8,4-3.8c1.6,0,2.8,0.8,4,2l-1.2,1.2c-0.9-0.8-1.7-1.4-2.9-1.4c-1.2,0-2.2,0.8-2.2,1.9c0,0.7,0.5,1.5,1.1,1.9
				c3.3,1.9,5.2,2.7,5.2,5.3c0,2.3-1.7,4.3-4.3,4.3c-1.6,0-3.2-0.7-4.3-2.1L479.1,167.5z"/>
			<polygon class="st1" points="399.4,206.6 401.3,206.6 401.3,218 407.9,212.2 410.7,212.2 402.8,219 411.1,226.6 408.5,226.6 
				401.3,220.1 401.3,226.6 399.4,226.6 			"/>
			<path class="st1" d="M428.7,219.4c0,4.1-3.2,7.5-7.5,7.5c-4.3,0-7.5-3.4-7.5-7.5c0-4.1,3.2-7.6,7.5-7.6
				C425.5,211.8,428.7,215.3,428.7,219.4 M415.6,219.4c0,3.1,2.4,5.7,5.6,5.7c3.2,0,5.6-2.6,5.6-5.7c0-3.2-2.5-5.9-5.6-5.9
				C418.1,213.6,415.6,216.2,415.6,219.4"/>
			<path class="st1" d="M435.4,214.8c1.4-2,3.4-3,5.7-3c4.2,0,7.5,3.4,7.5,7.5c0,4.1-3.2,7.6-7.4,7.6c-2.3,0-4.2-0.9-5.8-2.8v7.7
				h-1.8v-19.7h1.8V214.8z M435.2,219.4c0,3.6,2.8,5.8,5.7,5.8c3.2,0,5.7-2.7,5.7-5.9c0-3.1-2.4-5.8-5.7-5.8
				C437.7,213.6,435.2,216.1,435.2,219.4"/>
			<path class="st1" d="M455.6,207.7c0,0.8-0.7,1.5-1.5,1.5c-0.8,0-1.5-0.7-1.5-1.5c0-0.9,0.7-1.5,1.5-1.5
				C454.8,206.2,455.6,206.9,455.6,207.7 M453.1,212.2h1.8v14.4h-1.8V212.2z"/>
			<rect x="459.9" y="206.6" class="st1" width="1.8" height="20"/>
			<path class="st1" d="M479.5,212.2h1.8v14.4h-1.8v-2.5c-1.6,1.9-3.5,2.8-5.8,2.8c-4.2,0-7.4-3.5-7.4-7.6c0-4.1,3.3-7.5,7.4-7.5
				c2.3,0,4.3,1,5.7,3V212.2z M468.2,219.4c0,3.1,2.4,5.9,5.7,5.9c3,0,5.8-2.2,5.8-5.8c0-3.3-2.5-5.9-5.7-5.9
				C470.6,213.6,468.2,216.3,468.2,219.4"/>
			<polygon class="st1" points="486.8,206.6 488.7,206.6 488.7,218 495.3,212.2 498.1,212.2 490.2,219 498.5,226.6 495.9,226.6 
				488.7,220.1 488.7,226.6 486.8,226.6 			"/>
			<polygon class="st1" points="399.4,262.6 401.3,262.6 401.3,274 407.9,268.2 410.7,268.2 402.8,275.1 411.1,282.6 408.5,282.6 
				401.3,276.1 401.3,282.6 399.4,282.6 			"/>
			<rect x="414.1" y="262.6" class="st1" width="1.8" height="20"/>
			<path class="st1" d="M422.4,275.5c0.1,3.3,2.3,5.7,5.4,5.7c3,0,4.5-1.7,5.5-3.5l1.5,0.8c-1.5,2.9-3.7,4.3-6.9,4.3
				c-4.8,0-7.5-3.7-7.5-7.5c0-3.9,2.9-7.6,7.4-7.6c4.1,0,7.4,3,7.5,7.7H422.4z M433.3,273.9c-0.8-3-2.9-4.3-5.4-4.3
				c-2.6,0-4.5,1.4-5.3,4.3H433.3z"/>
			<path class="st1" d="M442.3,263.8c0,0.8-0.7,1.5-1.5,1.5c-0.8,0-1.5-0.7-1.5-1.5c0-0.9,0.7-1.5,1.5-1.5
				C441.6,262.2,442.3,262.9,442.3,263.8 M439.9,268.2h1.8v14.4h-1.8V268.2z"/>
			<path class="st1" d="M448.8,270.8c1.5-2,3.3-3,5.4-3c3.2,0,5.3,2.2,5.3,6.7v8.1h-1.8v-7.8c0-3.4-1.1-5.3-3.9-5.3
				c-1.5,0-2.8,0.7-3.8,2c-1.1,1.4-1.2,2.8-1.2,5.1v6.1h-1.8v-14.4h1.8V270.8z"/>
			<rect x="399.1" y="318.7" class="st1" width="1.8" height="20"/>
			<path class="st1" d="M416.7,324.2h2v7.5c0,4.9-2.2,7.3-6.3,7.3c-4.1,0-6.3-2.4-6.3-7.3v-7.5h2v7c0,1.5,0,2.8,0.4,3.6
				c0.7,1.5,2.2,2.3,4,2.3c1.3,0,2.5-0.5,3.3-1.3c1.1-1.2,1.1-2.6,1.1-4.7V324.2z"/>
			<path class="st1" d="M425.3,326.3c1.1-1.6,2.3-2.5,3.7-2.5c0.8,0,1.3,0.3,1.7,0.5l-1,1.6c-0.2-0.1-0.6-0.3-1-0.3
				c-1.4,0-2.6,1.2-3.1,3.1c-0.2,0.9-0.3,2.4-0.3,4.4v5.5h-2v-14.4h2V326.3z"/>
			<path class="st1" d="M435.8,319.8c0,0.8-0.7,1.5-1.5,1.5c-0.8,0-1.5-0.7-1.5-1.5c0-0.9,0.7-1.5,1.5-1.5
				C435,318.3,435.8,318.9,435.8,319.8 M433.3,324.2h1.8v14.4h-1.8V324.2z"/>
			<path class="st1" d="M441.6,331.6c0.1,3.3,2.3,5.7,5.4,5.7c3,0,4.4-1.7,5.5-3.4l1.5,0.8c-1.5,2.9-3.7,4.3-6.9,4.3
				c-4.8,0-7.5-3.7-7.5-7.5c0-3.9,2.9-7.6,7.4-7.6c4.1,0,7.4,3,7.5,7.7H441.6z M452.5,329.9c-0.8-3-2.9-4.3-5.4-4.3
				c-2.6,0-4.5,1.4-5.3,4.3H452.5z"/>
			<rect x="341.5" y="151.9" class="st1" width="31.3" height="210.6"/>
			<path class="st1" d="M270.6,313.5l-30.3,27.2H120.8l40.8-51.4c11.3-14,34.8-41.8,34.8-59.9c0-11.5-7.4-25.9-20.6-25.9
				c-14,0-20.4,15.3-19.7,27.4h-33.1c2.1-30.8,19.7-54.6,52.7-54.6c29.3,0,52,22.3,52,51.6c0,23.6-13.2,41.2-27.8,58.2l-23.6,27.4
				H270.6z"/>
			<polygon class="st1" points="270.3,248 270.8,248 306,210.3 335.9,210.9 293.5,255.7 372.9,362.5 341.4,362.5 270.8,269.7 
				270.3,269.7 270.3,314.1 240.6,340.7 240.6,134 270.3,134 			"/>
			<path class="st1" d="M76.3,218.8c-33.4,0-60.5,27.1-60.5,60.5c0,33.4,27.1,60.6,60.5,60.6c33.4,0,60.6-27.1,60.6-60.6
				C136.8,245.9,109.7,218.8,76.3,218.8 M76.3,313.4c-18.8,0-34.1-15.3-34.1-34.1c0-18.8,15.2-34.1,34.1-34.1
				c18.8,0,34.1,15.2,34.1,34.1C110.3,298.1,95.1,313.4,76.3,313.4"/>
		</g>
	</g>
</g>
</svg>
